<svg xmlns="http://www.w3.org/2000/svg" xmlns:xlink="http://www.w3.org/1999/xlink" width="162" zoomAndPan="magnify" viewBox="0 0 121.5 30.000001" height="40" preserveAspectRatio="xMidYMid meet" version="1.0"><defs><g/></defs><g fill="#000000" fill-opacity="1"><g transform="translate(6.04393, 18.431931)"><g><path d="M 0.875 0.0625 C 0.757812 0.0625 0.664062 0.046875 0.59375 0.015625 C 0.519531 -0.015625 0.484375 -0.0546875 0.484375 -0.109375 C 0.484375 -0.191406 0.625 -0.257812 0.90625 -0.3125 C 1.25 -0.375 1.46875 -0.472656 1.5625 -0.609375 C 1.664062 -0.753906 1.71875 -0.988281 1.71875 -1.3125 L 1.71875 -7.28125 C 1.71875 -7.59375 1.679688 -7.8125 1.609375 -7.9375 C 1.546875 -8.0625 1.347656 -8.15625 1.015625 -8.21875 C 0.722656 -8.269531 0.578125 -8.347656 0.578125 -8.453125 C 0.578125 -8.515625 0.609375 -8.554688 0.671875 -8.578125 C 0.734375 -8.609375 0.832031 -8.625 0.96875 -8.625 C 1.207031 -8.625 1.390625 -8.617188 1.515625 -8.609375 C 1.648438 -8.609375 1.773438 -8.601562 1.890625 -8.59375 C 2.003906 -8.59375 2.148438 -8.59375 2.328125 -8.59375 C 2.515625 -8.59375 2.664062 -8.59375 2.78125 -8.59375 C 2.90625 -8.601562 3.035156 -8.609375 3.171875 -8.609375 C 3.304688 -8.617188 3.492188 -8.625 3.734375 -8.625 C 3.984375 -8.625 4.109375 -8.566406 4.109375 -8.453125 C 4.109375 -8.398438 4.070312 -8.351562 4 -8.3125 C 3.9375 -8.28125 3.828125 -8.25 3.671875 -8.21875 C 3.347656 -8.15625 3.117188 -8.046875 2.984375 -7.890625 C 2.847656 -7.742188 2.78125 -7.539062 2.78125 -7.28125 L 2.78125 -4.671875 C 2.78125 -4.617188 2.800781 -4.585938 2.84375 -4.578125 C 2.882812 -4.566406 2.925781 -4.5625 2.96875 -4.5625 L 7.859375 -4.5625 C 7.921875 -4.5625 7.953125 -4.613281 7.953125 -4.71875 L 7.953125 -7.296875 C 7.953125 -7.535156 7.890625 -7.734375 7.765625 -7.890625 C 7.648438 -8.046875 7.421875 -8.15625 7.078125 -8.21875 C 6.929688 -8.25 6.820312 -8.28125 6.75 -8.3125 C 6.6875 -8.351562 6.65625 -8.398438 6.65625 -8.453125 C 6.65625 -8.566406 6.78125 -8.625 7.03125 -8.625 C 7.269531 -8.625 7.46875 -8.617188 7.625 -8.609375 C 7.78125 -8.609375 7.925781 -8.601562 8.0625 -8.59375 C 8.207031 -8.59375 8.375 -8.59375 8.5625 -8.59375 C 8.71875 -8.59375 8.835938 -8.59375 8.921875 -8.59375 C 9.015625 -8.601562 9.117188 -8.609375 9.234375 -8.609375 C 9.347656 -8.617188 9.523438 -8.625 9.765625 -8.625 C 9.890625 -8.625 9.984375 -8.609375 10.046875 -8.578125 C 10.117188 -8.554688 10.15625 -8.515625 10.15625 -8.453125 C 10.15625 -8.347656 10.007812 -8.269531 9.71875 -8.21875 C 9.394531 -8.15625 9.195312 -8.050781 9.125 -7.90625 C 9.050781 -7.757812 9.015625 -7.554688 9.015625 -7.296875 L 9.015625 -1.328125 C 9.015625 -0.992188 9.054688 -0.753906 9.140625 -0.609375 C 9.222656 -0.472656 9.425781 -0.375 9.75 -0.3125 C 10.03125 -0.257812 10.171875 -0.191406 10.171875 -0.109375 C 10.171875 -0.0546875 10.132812 -0.015625 10.0625 0.015625 C 10 0.046875 9.910156 0.0625 9.796875 0.0625 C 9.554688 0.0625 9.367188 0.0546875 9.234375 0.046875 C 9.109375 0.0351562 8.988281 0.0234375 8.875 0.015625 C 8.757812 0.00390625 8.609375 0 8.421875 0 C 8.234375 0 8.078125 0.00390625 7.953125 0.015625 C 7.835938 0.0234375 7.707031 0.0351562 7.5625 0.046875 C 7.425781 0.0546875 7.238281 0.0625 7 0.0625 C 6.882812 0.0625 6.789062 0.046875 6.71875 0.015625 C 6.65625 -0.015625 6.625 -0.0546875 6.625 -0.109375 C 6.625 -0.171875 6.65625 -0.210938 6.71875 -0.234375 C 6.789062 -0.265625 6.898438 -0.289062 7.046875 -0.3125 C 7.328125 -0.363281 7.546875 -0.46875 7.703125 -0.625 C 7.867188 -0.78125 7.953125 -1 7.953125 -1.28125 L 7.953125 -3.859375 C 7.953125 -3.898438 7.953125 -3.941406 7.953125 -3.984375 C 7.953125 -4.035156 7.929688 -4.0625 7.890625 -4.0625 L 2.84375 -4.0625 C 2.800781 -4.0625 2.78125 -4.007812 2.78125 -3.90625 L 2.78125 -1.40625 C 2.78125 -1.125 2.878906 -0.882812 3.078125 -0.6875 C 3.285156 -0.488281 3.535156 -0.363281 3.828125 -0.3125 C 3.984375 -0.289062 4.09375 -0.265625 4.15625 -0.234375 C 4.21875 -0.210938 4.25 -0.171875 4.25 -0.109375 C 4.25 -0.0546875 4.210938 -0.015625 4.140625 0.015625 C 4.078125 0.046875 3.988281 0.0625 3.875 0.0625 C 3.632812 0.0625 3.4375 0.0546875 3.28125 0.046875 C 3.125 0.0351562 2.972656 0.0234375 2.828125 0.015625 C 2.691406 0.00390625 2.523438 0 2.328125 0 C 2.140625 0 1.984375 0.00390625 1.859375 0.015625 C 1.734375 0.0234375 1.597656 0.0351562 1.453125 0.046875 C 1.304688 0.0546875 1.113281 0.0625 0.875 0.0625 Z M 0.875 0.0625 "/></g></g></g><g fill="#000000" fill-opacity="1"><g transform="translate(16.748795, 18.431931)"><g><path d="M 4.984375 0.1875 C 4.398438 0.1875 3.84375 0.0820312 3.3125 -0.125 C 2.789062 -0.332031 2.328125 -0.628906 1.921875 -1.015625 C 1.515625 -1.398438 1.191406 -1.859375 0.953125 -2.390625 C 0.710938 -2.921875 0.59375 -3.507812 0.59375 -4.15625 C 0.59375 -4.757812 0.6875 -5.335938 0.875 -5.890625 C 1.070312 -6.441406 1.359375 -6.929688 1.734375 -7.359375 C 2.117188 -7.796875 2.59375 -8.140625 3.15625 -8.390625 C 3.71875 -8.648438 4.367188 -8.78125 5.109375 -8.78125 C 5.679688 -8.78125 6.234375 -8.675781 6.765625 -8.46875 C 7.296875 -8.257812 7.765625 -7.960938 8.171875 -7.578125 C 8.578125 -7.191406 8.894531 -6.734375 9.125 -6.203125 C 9.363281 -5.671875 9.484375 -5.078125 9.484375 -4.421875 C 9.484375 -3.835938 9.382812 -3.265625 9.1875 -2.703125 C 9 -2.148438 8.710938 -1.65625 8.328125 -1.21875 C 7.953125 -0.789062 7.484375 -0.445312 6.921875 -0.1875 C 6.359375 0.0625 5.710938 0.1875 4.984375 0.1875 Z M 5.1875 -0.34375 C 5.863281 -0.34375 6.425781 -0.484375 6.875 -0.765625 C 7.320312 -1.054688 7.65625 -1.457031 7.875 -1.96875 C 8.101562 -2.488281 8.21875 -3.09375 8.21875 -3.78125 C 8.21875 -4.382812 8.144531 -4.957031 8 -5.5 C 7.863281 -6.039062 7.65625 -6.515625 7.375 -6.921875 C 7.101562 -7.328125 6.757812 -7.644531 6.34375 -7.875 C 5.925781 -8.101562 5.441406 -8.21875 4.890625 -8.21875 C 4.234375 -8.21875 3.675781 -8.078125 3.21875 -7.796875 C 2.769531 -7.515625 2.429688 -7.117188 2.203125 -6.609375 C 1.972656 -6.109375 1.859375 -5.515625 1.859375 -4.828125 C 1.859375 -4.210938 1.925781 -3.632812 2.0625 -3.09375 C 2.207031 -2.550781 2.414062 -2.070312 2.6875 -1.65625 C 2.96875 -1.25 3.3125 -0.925781 3.71875 -0.6875 C 4.132812 -0.457031 4.625 -0.34375 5.1875 -0.34375 Z M 5.1875 -0.34375 "/></g></g></g><g fill="#000000" fill-opacity="1"><g transform="translate(26.832505, 18.431931)"><g><path d="M 0.640625 0.0625 C 0.523438 0.0625 0.429688 0.0507812 0.359375 0.03125 C 0.285156 0.0078125 0.25 -0.0234375 0.25 -0.078125 C 0.25 -0.140625 0.285156 -0.1875 0.359375 -0.21875 C 0.429688 -0.257812 0.539062 -0.289062 0.6875 -0.3125 C 0.90625 -0.363281 1.082031 -0.472656 1.21875 -0.640625 C 1.363281 -0.804688 1.457031 -1.039062 1.5 -1.34375 C 1.613281 -2.132812 1.707031 -2.890625 1.78125 -3.609375 C 1.863281 -4.328125 1.925781 -4.972656 1.96875 -5.546875 C 2.019531 -6.128906 2.046875 -6.609375 2.046875 -6.984375 C 2.046875 -7.046875 2.046875 -7.117188 2.046875 -7.203125 C 2.046875 -7.285156 2.039062 -7.359375 2.03125 -7.421875 C 2.019531 -7.484375 2.003906 -7.550781 1.984375 -7.625 C 1.972656 -7.707031 1.925781 -7.785156 1.84375 -7.859375 C 1.675781 -7.984375 1.519531 -8.070312 1.375 -8.125 C 1.226562 -8.175781 1.050781 -8.21875 0.84375 -8.25 C 0.757812 -8.269531 0.691406 -8.300781 0.640625 -8.34375 C 0.585938 -8.394531 0.5625 -8.453125 0.5625 -8.515625 C 0.5625 -8.585938 0.601562 -8.628906 0.6875 -8.640625 C 0.769531 -8.648438 0.875 -8.65625 1 -8.65625 C 1.09375 -8.65625 1.226562 -8.648438 1.40625 -8.640625 C 1.582031 -8.628906 1.773438 -8.613281 1.984375 -8.59375 C 2.203125 -8.582031 2.398438 -8.570312 2.578125 -8.5625 C 2.765625 -8.550781 2.898438 -8.546875 2.984375 -8.546875 C 3.046875 -8.546875 3.097656 -8.53125 3.140625 -8.5 C 3.191406 -8.46875 3.222656 -8.414062 3.234375 -8.34375 C 3.273438 -8.1875 3.316406 -8.019531 3.359375 -7.84375 C 3.410156 -7.664062 3.46875 -7.492188 3.53125 -7.328125 L 5.625 -2.015625 C 5.644531 -1.960938 5.691406 -1.925781 5.765625 -1.90625 C 5.835938 -1.894531 5.890625 -1.921875 5.921875 -1.984375 L 8.53125 -7.40625 C 8.570312 -7.550781 8.613281 -7.71875 8.65625 -7.90625 C 8.695312 -8.09375 8.734375 -8.253906 8.765625 -8.390625 C 8.785156 -8.503906 8.828125 -8.5625 8.890625 -8.5625 L 9.375 -8.5625 C 9.632812 -8.5625 9.910156 -8.578125 10.203125 -8.609375 C 10.503906 -8.648438 10.726562 -8.671875 10.875 -8.671875 C 10.914062 -8.671875 10.972656 -8.660156 11.046875 -8.640625 C 11.117188 -8.628906 11.15625 -8.597656 11.15625 -8.546875 C 11.15625 -8.484375 11.128906 -8.429688 11.078125 -8.390625 C 11.035156 -8.359375 10.945312 -8.316406 10.8125 -8.265625 C 10.695312 -8.222656 10.566406 -8.171875 10.421875 -8.109375 C 10.285156 -8.054688 10.15625 -8.003906 10.03125 -7.953125 C 9.945312 -7.921875 9.875 -7.863281 9.8125 -7.78125 C 9.75 -7.695312 9.71875 -7.609375 9.71875 -7.515625 C 9.71875 -6.890625 9.726562 -6.304688 9.75 -5.765625 C 9.769531 -5.222656 9.789062 -4.703125 9.8125 -4.203125 C 9.84375 -3.710938 9.875 -3.222656 9.90625 -2.734375 C 9.945312 -2.253906 9.976562 -1.757812 10 -1.25 C 10.019531 -0.976562 10.109375 -0.769531 10.265625 -0.625 C 10.429688 -0.476562 10.675781 -0.375 11 -0.3125 C 11.144531 -0.289062 11.253906 -0.257812 11.328125 -0.21875 C 11.398438 -0.1875 11.4375 -0.140625 11.4375 -0.078125 C 11.4375 -0.0234375 11.398438 0.0078125 11.328125 0.03125 C 11.253906 0.0507812 11.160156 0.0625 11.046875 0.0625 C 10.804688 0.0625 10.609375 0.0546875 10.453125 0.046875 C 10.304688 0.0351562 10.160156 0.0234375 10.015625 0.015625 C 9.878906 0.00390625 9.707031 0 9.5 0 C 9.320312 0 9.175781 0.00390625 9.0625 0.015625 C 8.945312 0.0234375 8.816406 0.0351562 8.671875 0.046875 C 8.535156 0.0546875 8.347656 0.0625 8.109375 0.0625 C 7.992188 0.0625 7.898438 0.0507812 7.828125 0.03125 C 7.765625 0.0078125 7.734375 -0.0234375 7.734375 -0.078125 C 7.734375 -0.140625 7.765625 -0.191406 7.828125 -0.234375 C 7.898438 -0.273438 8.015625 -0.300781 8.171875 -0.3125 C 8.421875 -0.351562 8.59375 -0.445312 8.6875 -0.59375 C 8.789062 -0.738281 8.84375 -0.960938 8.84375 -1.265625 C 8.84375 -1.898438 8.832031 -2.472656 8.8125 -2.984375 C 8.800781 -3.492188 8.78125 -4 8.75 -4.5 C 8.726562 -5 8.707031 -5.546875 8.6875 -6.140625 C 8.675781 -6.234375 8.648438 -6.273438 8.609375 -6.265625 C 8.566406 -6.265625 8.519531 -6.222656 8.46875 -6.140625 L 5.4375 0.0625 C 5.414062 0.101562 5.375 0.125 5.3125 0.125 C 5.25 0.132812 5.207031 0.109375 5.1875 0.046875 C 4.84375 -0.984375 4.472656 -2 4.078125 -3 C 3.691406 -4 3.253906 -5.070312 2.765625 -6.21875 C 2.742188 -6.269531 2.710938 -6.296875 2.671875 -6.296875 C 2.628906 -6.296875 2.601562 -6.269531 2.59375 -6.21875 C 2.507812 -5.601562 2.4375 -5.035156 2.375 -4.515625 C 2.3125 -4.003906 2.257812 -3.5 2.21875 -3 C 2.1875 -2.5 2.171875 -1.945312 2.171875 -1.34375 C 2.171875 -1.101562 2.242188 -0.882812 2.390625 -0.6875 C 2.546875 -0.488281 2.757812 -0.363281 3.03125 -0.3125 C 3.175781 -0.289062 3.285156 -0.257812 3.359375 -0.21875 C 3.429688 -0.1875 3.46875 -0.140625 3.46875 -0.078125 C 3.46875 -0.0234375 3.429688 0.0078125 3.359375 0.03125 C 3.285156 0.0507812 3.191406 0.0625 3.078125 0.0625 C 2.835938 0.0625 2.65625 0.0546875 2.53125 0.046875 C 2.414062 0.0351562 2.3125 0.0234375 2.21875 0.015625 C 2.132812 0.00390625 2.007812 0 1.84375 0 C 1.675781 0 1.546875 0.00390625 1.453125 0.015625 C 1.367188 0.0234375 1.269531 0.0351562 1.15625 0.046875 C 1.039062 0.0546875 0.867188 0.0625 0.640625 0.0625 Z M 0.640625 0.0625 "/></g></g></g><g fill="#000000" fill-opacity="1"><g transform="translate(38.740015, 18.431931)"><g><path d="M 0.875 0.0625 C 0.757812 0.0625 0.664062 0.0507812 0.59375 0.03125 C 0.519531 0.0078125 0.484375 -0.0234375 0.484375 -0.078125 C 0.484375 -0.179688 0.628906 -0.257812 0.921875 -0.3125 C 1.253906 -0.375 1.5 -0.472656 1.65625 -0.609375 C 1.820312 -0.753906 1.90625 -0.988281 1.90625 -1.3125 L 1.90625 -7.25 C 1.90625 -7.570312 1.835938 -7.796875 1.703125 -7.921875 C 1.578125 -8.054688 1.347656 -8.15625 1.015625 -8.21875 C 0.867188 -8.25 0.757812 -8.285156 0.6875 -8.328125 C 0.613281 -8.367188 0.578125 -8.421875 0.578125 -8.484375 C 0.578125 -8.535156 0.613281 -8.570312 0.6875 -8.59375 C 0.757812 -8.613281 0.851562 -8.625 0.96875 -8.625 C 1.300781 -8.625 1.582031 -8.617188 1.8125 -8.609375 C 2.050781 -8.609375 2.28125 -8.601562 2.5 -8.59375 C 2.726562 -8.59375 2.992188 -8.59375 3.296875 -8.59375 C 3.585938 -8.59375 3.894531 -8.59375 4.21875 -8.59375 C 4.539062 -8.601562 4.835938 -8.609375 5.109375 -8.609375 C 5.410156 -8.617188 5.664062 -8.625 5.875 -8.625 C 6.082031 -8.625 6.203125 -8.625 6.234375 -8.625 C 6.285156 -8.625 6.335938 -8.613281 6.390625 -8.59375 C 6.441406 -8.582031 6.472656 -8.554688 6.484375 -8.515625 C 6.523438 -8.265625 6.566406 -8.019531 6.609375 -7.78125 C 6.648438 -7.539062 6.671875 -7.332031 6.671875 -7.15625 C 6.671875 -7.070312 6.648438 -7.015625 6.609375 -6.984375 C 6.578125 -6.960938 6.535156 -6.953125 6.484375 -6.953125 C 6.441406 -6.953125 6.410156 -6.960938 6.390625 -6.984375 C 6.378906 -7.003906 6.363281 -7.035156 6.34375 -7.078125 C 6.300781 -7.234375 6.253906 -7.378906 6.203125 -7.515625 C 6.160156 -7.648438 6.109375 -7.75 6.046875 -7.8125 C 5.929688 -7.957031 5.796875 -8.050781 5.640625 -8.09375 C 5.492188 -8.144531 5.335938 -8.171875 5.171875 -8.171875 L 3.4375 -8.171875 C 3.363281 -8.171875 3.265625 -8.128906 3.140625 -8.046875 C 3.023438 -7.972656 2.96875 -7.875 2.96875 -7.75 L 2.96875 -4.9375 C 2.96875 -4.863281 2.988281 -4.796875 3.03125 -4.734375 C 3.082031 -4.679688 3.140625 -4.65625 3.203125 -4.65625 L 4.5 -4.65625 C 4.757812 -4.65625 4.9375 -4.703125 5.03125 -4.796875 C 5.132812 -4.890625 5.21875 -5.054688 5.28125 -5.296875 C 5.332031 -5.492188 5.410156 -5.59375 5.515625 -5.59375 C 5.546875 -5.59375 5.582031 -5.570312 5.625 -5.53125 C 5.664062 -5.5 5.6875 -5.445312 5.6875 -5.375 C 5.6875 -5.34375 5.679688 -5.265625 5.671875 -5.140625 C 5.671875 -5.015625 5.664062 -4.882812 5.65625 -4.75 C 5.644531 -4.625 5.640625 -4.523438 5.640625 -4.453125 C 5.640625 -4.367188 5.640625 -4.253906 5.640625 -4.109375 C 5.648438 -3.960938 5.65625 -3.820312 5.65625 -3.6875 C 5.664062 -3.550781 5.671875 -3.46875 5.671875 -3.4375 C 5.671875 -3.375 5.660156 -3.320312 5.640625 -3.28125 C 5.628906 -3.238281 5.597656 -3.21875 5.546875 -3.21875 C 5.421875 -3.21875 5.320312 -3.359375 5.25 -3.640625 C 5.195312 -3.835938 5.125 -3.984375 5.03125 -4.078125 C 4.945312 -4.179688 4.816406 -4.234375 4.640625 -4.234375 L 3.40625 -4.234375 C 3.257812 -4.234375 3.148438 -4.210938 3.078125 -4.171875 C 3.003906 -4.128906 2.96875 -4.035156 2.96875 -3.890625 L 2.96875 -1.34375 C 2.96875 -1.007812 3.035156 -0.78125 3.171875 -0.65625 C 3.316406 -0.53125 3.535156 -0.46875 3.828125 -0.46875 L 4.8125 -0.46875 C 5.09375 -0.46875 5.328125 -0.484375 5.515625 -0.515625 C 5.703125 -0.546875 5.867188 -0.601562 6.015625 -0.6875 C 6.148438 -0.78125 6.273438 -0.90625 6.390625 -1.0625 C 6.503906 -1.226562 6.628906 -1.441406 6.765625 -1.703125 C 6.796875 -1.753906 6.828125 -1.796875 6.859375 -1.828125 C 6.890625 -1.867188 6.929688 -1.882812 6.984375 -1.875 C 7.023438 -1.863281 7.054688 -1.84375 7.078125 -1.8125 C 7.109375 -1.78125 7.125 -1.738281 7.125 -1.6875 C 7.125 -1.613281 7.101562 -1.476562 7.0625 -1.28125 C 7.019531 -1.082031 6.960938 -0.875 6.890625 -0.65625 C 6.828125 -0.445312 6.769531 -0.28125 6.71875 -0.15625 C 6.6875 -0.09375 6.660156 -0.0390625 6.640625 0 C 6.617188 0.0390625 6.582031 0.0625 6.53125 0.0625 C 6.101562 0.0625 5.707031 0.0546875 5.34375 0.046875 C 4.988281 0.046875 4.644531 0.0390625 4.3125 0.03125 C 3.988281 0.0195312 3.671875 0.0078125 3.359375 0 C 3.046875 -0.0078125 2.722656 -0.015625 2.390625 -0.015625 C 2.203125 -0.015625 2.035156 -0.0078125 1.890625 0 C 1.742188 0.0195312 1.597656 0.0351562 1.453125 0.046875 C 1.304688 0.0546875 1.113281 0.0625 0.875 0.0625 Z M 0.875 0.0625 "/></g></g></g><g fill="#000000" fill-opacity="1"><g transform="translate(46.193773, 18.431931)"><g><path d="M 0.734375 0.0625 C 0.617188 0.0625 0.523438 0.046875 0.453125 0.015625 C 0.390625 -0.015625 0.359375 -0.0507812 0.359375 -0.09375 C 0.359375 -0.175781 0.398438 -0.226562 0.484375 -0.25 C 0.566406 -0.28125 0.617188 -0.300781 0.640625 -0.3125 C 0.984375 -0.382812 1.25 -0.488281 1.4375 -0.625 C 1.625 -0.757812 1.71875 -0.972656 1.71875 -1.265625 L 1.71875 -7.40625 C 1.71875 -7.613281 1.695312 -7.769531 1.65625 -7.875 C 1.613281 -7.976562 1.535156 -8.050781 1.421875 -8.09375 C 1.304688 -8.144531 1.132812 -8.1875 0.90625 -8.21875 C 0.613281 -8.269531 0.46875 -8.359375 0.46875 -8.484375 C 0.46875 -8.535156 0.503906 -8.570312 0.578125 -8.59375 C 0.648438 -8.613281 0.742188 -8.625 0.859375 -8.625 C 1.097656 -8.625 1.289062 -8.617188 1.4375 -8.609375 C 1.582031 -8.609375 1.71875 -8.601562 1.84375 -8.59375 C 1.976562 -8.59375 2.144531 -8.59375 2.34375 -8.59375 C 2.5625 -8.59375 2.75 -8.59375 2.90625 -8.59375 C 3.0625 -8.601562 3.222656 -8.609375 3.390625 -8.609375 C 3.554688 -8.617188 3.757812 -8.625 4 -8.625 C 4.113281 -8.625 4.207031 -8.613281 4.28125 -8.59375 C 4.351562 -8.570312 4.390625 -8.535156 4.390625 -8.484375 C 4.390625 -8.421875 4.351562 -8.367188 4.28125 -8.328125 C 4.207031 -8.285156 4.097656 -8.25 3.953125 -8.21875 C 3.628906 -8.15625 3.351562 -8.082031 3.125 -8 C 2.894531 -7.914062 2.78125 -7.75 2.78125 -7.5 L 2.78125 -1.265625 C 2.78125 -0.992188 2.835938 -0.789062 2.953125 -0.65625 C 3.078125 -0.53125 3.359375 -0.46875 3.796875 -0.46875 L 5.4375 -0.46875 C 5.675781 -0.46875 5.882812 -0.503906 6.0625 -0.578125 C 6.238281 -0.648438 6.375 -0.726562 6.46875 -0.8125 C 6.644531 -0.957031 6.773438 -1.085938 6.859375 -1.203125 C 6.941406 -1.328125 7.039062 -1.507812 7.15625 -1.75 C 7.164062 -1.800781 7.195312 -1.878906 7.25 -1.984375 C 7.3125 -2.085938 7.375 -2.140625 7.4375 -2.140625 C 7.488281 -2.140625 7.523438 -2.113281 7.546875 -2.0625 C 7.578125 -2.007812 7.59375 -1.957031 7.59375 -1.90625 C 7.59375 -1.894531 7.59375 -1.878906 7.59375 -1.859375 C 7.59375 -1.847656 7.59375 -1.84375 7.59375 -1.84375 C 7.53125 -1.613281 7.472656 -1.40625 7.421875 -1.21875 C 7.367188 -1.03125 7.328125 -0.851562 7.296875 -0.6875 C 7.265625 -0.519531 7.242188 -0.34375 7.234375 -0.15625 C 7.222656 -0.09375 7.207031 -0.0390625 7.1875 0 C 7.164062 0.0390625 7.117188 0.0625 7.046875 0.0625 C 6.609375 0.0625 6.1875 0.0546875 5.78125 0.046875 C 5.375 0.046875 4.984375 0.0390625 4.609375 0.03125 C 4.234375 0.03125 3.875 0.0234375 3.53125 0.015625 C 3.1875 0.00390625 2.847656 0 2.515625 0 C 2.296875 0 2.046875 0.00390625 1.765625 0.015625 C 1.484375 0.0234375 1.238281 0.0351562 1.03125 0.046875 C 0.832031 0.0546875 0.734375 0.0625 0.734375 0.0625 Z M 0.734375 0.0625 "/></g></g></g><g fill="#000000" fill-opacity="1"><g transform="translate(53.911847, 18.431931)"><g><path d="M 2.40625 0.0625 C 2.289062 0.0625 2.195312 0.0507812 2.125 0.03125 C 2.050781 0.0078125 2.015625 -0.0234375 2.015625 -0.078125 C 2.015625 -0.140625 2.050781 -0.1875 2.125 -0.21875 C 2.195312 -0.257812 2.304688 -0.289062 2.453125 -0.3125 C 2.796875 -0.375 3.050781 -0.492188 3.21875 -0.671875 C 3.394531 -0.859375 3.484375 -1.109375 3.484375 -1.421875 L 3.484375 -3.390625 C 3.484375 -3.554688 3.4375 -3.742188 3.34375 -3.953125 C 3.257812 -4.160156 3.195312 -4.296875 3.15625 -4.359375 L 1.609375 -6.90625 C 1.546875 -7.007812 1.445312 -7.15625 1.3125 -7.34375 C 1.1875 -7.53125 1.046875 -7.707031 0.890625 -7.875 C 0.734375 -8.039062 0.582031 -8.148438 0.4375 -8.203125 C 0.289062 -8.242188 0.179688 -8.285156 0.109375 -8.328125 C 0.0351562 -8.367188 0 -8.421875 0 -8.484375 C 0 -8.535156 0.0351562 -8.570312 0.109375 -8.59375 C 0.179688 -8.613281 0.273438 -8.625 0.390625 -8.625 C 0.585938 -8.625 0.816406 -8.617188 1.078125 -8.609375 C 1.347656 -8.597656 1.632812 -8.59375 1.9375 -8.59375 C 2.132812 -8.59375 2.320312 -8.597656 2.5 -8.609375 C 2.6875 -8.617188 2.847656 -8.625 2.984375 -8.625 C 3.097656 -8.625 3.191406 -8.609375 3.265625 -8.578125 C 3.335938 -8.554688 3.375 -8.519531 3.375 -8.46875 C 3.375 -8.40625 3.335938 -8.351562 3.265625 -8.3125 C 3.191406 -8.28125 3.082031 -8.242188 2.9375 -8.203125 C 2.8125 -8.171875 2.707031 -8.132812 2.625 -8.09375 C 2.550781 -8.050781 2.515625 -7.976562 2.515625 -7.875 C 2.515625 -7.757812 2.570312 -7.601562 2.6875 -7.40625 L 3.90625 -5.15625 C 4.070312 -4.820312 4.191406 -4.65625 4.265625 -4.65625 C 4.316406 -4.65625 4.375 -4.691406 4.4375 -4.765625 C 4.5 -4.835938 4.585938 -4.96875 4.703125 -5.15625 C 4.910156 -5.46875 5.09375 -5.765625 5.25 -6.046875 C 5.40625 -6.328125 5.59375 -6.664062 5.8125 -7.0625 C 5.90625 -7.207031 5.96875 -7.332031 6 -7.4375 C 6.03125 -7.550781 6.046875 -7.648438 6.046875 -7.734375 C 6.046875 -7.898438 5.988281 -8.015625 5.875 -8.078125 C 5.757812 -8.140625 5.640625 -8.179688 5.515625 -8.203125 C 5.421875 -8.210938 5.320312 -8.242188 5.21875 -8.296875 C 5.125 -8.347656 5.078125 -8.398438 5.078125 -8.453125 C 5.078125 -8.515625 5.109375 -8.554688 5.171875 -8.578125 C 5.242188 -8.597656 5.335938 -8.609375 5.453125 -8.609375 C 5.660156 -8.609375 5.828125 -8.601562 5.953125 -8.59375 C 6.085938 -8.59375 6.253906 -8.59375 6.453125 -8.59375 C 6.722656 -8.59375 6.976562 -8.597656 7.21875 -8.609375 C 7.46875 -8.617188 7.671875 -8.625 7.828125 -8.625 C 7.941406 -8.625 8.03125 -8.613281 8.09375 -8.59375 C 8.164062 -8.570312 8.203125 -8.535156 8.203125 -8.484375 C 8.203125 -8.421875 8.128906 -8.363281 7.984375 -8.3125 C 7.847656 -8.257812 7.691406 -8.207031 7.515625 -8.15625 C 7.285156 -8.09375 7.09375 -7.96875 6.9375 -7.78125 C 6.78125 -7.59375 6.582031 -7.316406 6.34375 -6.953125 C 6.164062 -6.679688 6.015625 -6.453125 5.890625 -6.265625 C 5.773438 -6.078125 5.664062 -5.90625 5.5625 -5.75 C 5.46875 -5.59375 5.367188 -5.425781 5.265625 -5.25 C 5.160156 -5.082031 5.03125 -4.875 4.875 -4.625 C 4.757812 -4.4375 4.679688 -4.285156 4.640625 -4.171875 C 4.597656 -4.054688 4.570312 -3.945312 4.5625 -3.84375 C 4.550781 -3.75 4.546875 -3.613281 4.546875 -3.4375 L 4.546875 -1.421875 C 4.546875 -1.128906 4.640625 -0.882812 4.828125 -0.6875 C 5.015625 -0.5 5.269531 -0.375 5.59375 -0.3125 C 5.738281 -0.289062 5.847656 -0.257812 5.921875 -0.21875 C 5.992188 -0.1875 6.03125 -0.140625 6.03125 -0.078125 C 6.03125 -0.0234375 5.992188 0.0078125 5.921875 0.03125 C 5.847656 0.0507812 5.753906 0.0625 5.640625 0.0625 C 5.398438 0.0625 5.203125 0.0546875 5.046875 0.046875 C 4.898438 0.0351562 4.753906 0.0234375 4.609375 0.015625 C 4.472656 0.00390625 4.300781 0 4.09375 0 C 3.875 0 3.679688 0.00390625 3.515625 0.015625 C 3.359375 0.0234375 3.191406 0.0351562 3.015625 0.046875 C 2.847656 0.0546875 2.644531 0.0625 2.40625 0.0625 Z M 2.40625 0.0625 "/></g></g></g><g fill="#000000" fill-opacity="1"><g transform="translate(61.550622, 18.431931)"><g/></g></g><g fill="#000000" fill-opacity="1"><g transform="translate(64.193799, 18.431931)"><g><path d="M 0.640625 0.0625 C 0.523438 0.0625 0.429688 0.0507812 0.359375 0.03125 C 0.285156 0.0078125 0.25 -0.0234375 0.25 -0.078125 C 0.25 -0.179688 0.394531 -0.257812 0.6875 -0.3125 C 1.019531 -0.375 1.273438 -0.472656 1.453125 -0.609375 C 1.628906 -0.753906 1.71875 -0.988281 1.71875 -1.3125 L 1.71875 -7.25 C 1.71875 -7.570312 1.648438 -7.804688 1.515625 -7.953125 C 1.390625 -8.109375 1.160156 -8.195312 0.828125 -8.21875 C 0.679688 -8.238281 0.570312 -8.269531 0.5 -8.3125 C 0.425781 -8.363281 0.390625 -8.421875 0.390625 -8.484375 C 0.390625 -8.535156 0.425781 -8.570312 0.5 -8.59375 C 0.570312 -8.613281 0.664062 -8.625 0.78125 -8.625 C 1.019531 -8.625 1.203125 -8.625 1.328125 -8.625 C 1.460938 -8.625 1.585938 -8.625 1.703125 -8.625 C 1.828125 -8.625 1.976562 -8.625 2.15625 -8.625 C 2.320312 -8.625 2.46875 -8.628906 2.59375 -8.640625 C 2.71875 -8.648438 2.851562 -8.660156 3 -8.671875 C 3.15625 -8.679688 3.363281 -8.6875 3.625 -8.6875 C 4.65625 -8.6875 5.421875 -8.535156 5.921875 -8.234375 C 6.429688 -7.941406 6.6875 -7.4375 6.6875 -6.71875 C 6.6875 -6.414062 6.632812 -6.148438 6.53125 -5.921875 C 6.4375 -5.703125 6.335938 -5.546875 6.234375 -5.453125 C 6.097656 -5.304688 5.972656 -5.195312 5.859375 -5.125 C 5.742188 -5.050781 5.578125 -4.96875 5.359375 -4.875 C 5.316406 -4.863281 5.296875 -4.84375 5.296875 -4.8125 C 5.296875 -4.78125 5.316406 -4.757812 5.359375 -4.75 C 5.554688 -4.6875 5.765625 -4.601562 5.984375 -4.5 C 6.203125 -4.40625 6.40625 -4.28125 6.59375 -4.125 C 6.78125 -3.976562 6.929688 -3.773438 7.046875 -3.515625 C 7.171875 -3.265625 7.234375 -2.945312 7.234375 -2.5625 C 7.234375 -2.082031 7.15625 -1.695312 7 -1.40625 C 6.84375 -1.125 6.660156 -0.910156 6.453125 -0.765625 C 6.242188 -0.617188 6.046875 -0.492188 5.859375 -0.390625 C 5.585938 -0.253906 5.269531 -0.144531 4.90625 -0.0625 C 4.539062 0.0078125 4.109375 0.046875 3.609375 0.046875 C 3.492188 0.046875 3.320312 0.0351562 3.09375 0.015625 C 2.863281 0.00390625 2.617188 0 2.359375 0 C 2.128906 0 1.929688 0.00390625 1.765625 0.015625 C 1.609375 0.0234375 1.441406 0.0351562 1.265625 0.046875 C 1.097656 0.0546875 0.890625 0.0625 0.640625 0.0625 Z M 3.796875 -0.484375 C 4.179688 -0.484375 4.539062 -0.570312 4.875 -0.75 C 5.207031 -0.925781 5.472656 -1.164062 5.671875 -1.46875 C 5.878906 -1.78125 5.984375 -2.125 5.984375 -2.5 C 5.984375 -2.84375 5.925781 -3.125 5.8125 -3.34375 C 5.695312 -3.570312 5.5625 -3.753906 5.40625 -3.890625 C 5.257812 -4.035156 5.128906 -4.140625 5.015625 -4.203125 C 4.898438 -4.273438 4.71875 -4.347656 4.46875 -4.421875 C 4.21875 -4.492188 3.894531 -4.53125 3.5 -4.53125 C 3.21875 -4.53125 3.019531 -4.472656 2.90625 -4.359375 C 2.800781 -4.242188 2.75 -4.144531 2.75 -4.0625 L 2.75 -1.421875 C 2.75 -1.054688 2.835938 -0.804688 3.015625 -0.671875 C 3.203125 -0.546875 3.460938 -0.484375 3.796875 -0.484375 Z M 3.359375 -4.90625 C 3.597656 -4.90625 3.851562 -4.929688 4.125 -4.984375 C 4.40625 -5.035156 4.679688 -5.132812 4.953125 -5.28125 C 5.054688 -5.332031 5.179688 -5.457031 5.328125 -5.65625 C 5.472656 -5.863281 5.546875 -6.160156 5.546875 -6.546875 C 5.546875 -6.796875 5.5 -7.054688 5.40625 -7.328125 C 5.3125 -7.597656 5.125 -7.820312 4.84375 -8 C 4.570312 -8.1875 4.164062 -8.28125 3.625 -8.28125 C 3.257812 -8.28125 3.019531 -8.234375 2.90625 -8.140625 C 2.800781 -8.046875 2.75 -7.894531 2.75 -7.6875 L 2.75 -5.390625 C 2.75 -5.160156 2.820312 -5.019531 2.96875 -4.96875 C 3.125 -4.925781 3.253906 -4.90625 3.359375 -4.90625 Z M 3.359375 -4.90625 "/></g></g></g><g fill="#000000" fill-opacity="1"><g transform="translate(71.951517, 18.431931)"><g><path d="M 2.40625 0.0625 C 2.289062 0.0625 2.195312 0.0507812 2.125 0.03125 C 2.050781 0.0078125 2.015625 -0.0234375 2.015625 -0.078125 C 2.015625 -0.140625 2.050781 -0.1875 2.125 -0.21875 C 2.195312 -0.257812 2.304688 -0.289062 2.453125 -0.3125 C 2.796875 -0.375 3.050781 -0.492188 3.21875 -0.671875 C 3.394531 -0.859375 3.484375 -1.109375 3.484375 -1.421875 L 3.484375 -3.390625 C 3.484375 -3.554688 3.4375 -3.742188 3.34375 -3.953125 C 3.257812 -4.160156 3.195312 -4.296875 3.15625 -4.359375 L 1.609375 -6.90625 C 1.546875 -7.007812 1.445312 -7.15625 1.3125 -7.34375 C 1.1875 -7.53125 1.046875 -7.707031 0.890625 -7.875 C 0.734375 -8.039062 0.582031 -8.148438 0.4375 -8.203125 C 0.289062 -8.242188 0.179688 -8.285156 0.109375 -8.328125 C 0.0351562 -8.367188 0 -8.421875 0 -8.484375 C 0 -8.535156 0.0351562 -8.570312 0.109375 -8.59375 C 0.179688 -8.613281 0.273438 -8.625 0.390625 -8.625 C 0.585938 -8.625 0.816406 -8.617188 1.078125 -8.609375 C 1.347656 -8.597656 1.632812 -8.59375 1.9375 -8.59375 C 2.132812 -8.59375 2.320312 -8.597656 2.5 -8.609375 C 2.6875 -8.617188 2.847656 -8.625 2.984375 -8.625 C 3.097656 -8.625 3.191406 -8.609375 3.265625 -8.578125 C 3.335938 -8.554688 3.375 -8.519531 3.375 -8.46875 C 3.375 -8.40625 3.335938 -8.351562 3.265625 -8.3125 C 3.191406 -8.28125 3.082031 -8.242188 2.9375 -8.203125 C 2.8125 -8.171875 2.707031 -8.132812 2.625 -8.09375 C 2.550781 -8.050781 2.515625 -7.976562 2.515625 -7.875 C 2.515625 -7.757812 2.570312 -7.601562 2.6875 -7.40625 L 3.90625 -5.15625 C 4.070312 -4.820312 4.191406 -4.65625 4.265625 -4.65625 C 4.316406 -4.65625 4.375 -4.691406 4.4375 -4.765625 C 4.5 -4.835938 4.585938 -4.96875 4.703125 -5.15625 C 4.910156 -5.46875 5.09375 -5.765625 5.25 -6.046875 C 5.40625 -6.328125 5.59375 -6.664062 5.8125 -7.0625 C 5.90625 -7.207031 5.96875 -7.332031 6 -7.4375 C 6.03125 -7.550781 6.046875 -7.648438 6.046875 -7.734375 C 6.046875 -7.898438 5.988281 -8.015625 5.875 -8.078125 C 5.757812 -8.140625 5.640625 -8.179688 5.515625 -8.203125 C 5.421875 -8.210938 5.320312 -8.242188 5.21875 -8.296875 C 5.125 -8.347656 5.078125 -8.398438 5.078125 -8.453125 C 5.078125 -8.515625 5.109375 -8.554688 5.171875 -8.578125 C 5.242188 -8.597656 5.335938 -8.609375 5.453125 -8.609375 C 5.660156 -8.609375 5.828125 -8.601562 5.953125 -8.59375 C 6.085938 -8.59375 6.253906 -8.59375 6.453125 -8.59375 C 6.722656 -8.59375 6.976562 -8.597656 7.21875 -8.609375 C 7.46875 -8.617188 7.671875 -8.625 7.828125 -8.625 C 7.941406 -8.625 8.03125 -8.613281 8.09375 -8.59375 C 8.164062 -8.570312 8.203125 -8.535156 8.203125 -8.484375 C 8.203125 -8.421875 8.128906 -8.363281 7.984375 -8.3125 C 7.847656 -8.257812 7.691406 -8.207031 7.515625 -8.15625 C 7.285156 -8.09375 7.09375 -7.96875 6.9375 -7.78125 C 6.78125 -7.59375 6.582031 -7.316406 6.34375 -6.953125 C 6.164062 -6.679688 6.015625 -6.453125 5.890625 -6.265625 C 5.773438 -6.078125 5.664062 -5.90625 5.5625 -5.75 C 5.46875 -5.59375 5.367188 -5.425781 5.265625 -5.25 C 5.160156 -5.082031 5.03125 -4.875 4.875 -4.625 C 4.757812 -4.4375 4.679688 -4.285156 4.640625 -4.171875 C 4.597656 -4.054688 4.570312 -3.945312 4.5625 -3.84375 C 4.550781 -3.75 4.546875 -3.613281 4.546875 -3.4375 L 4.546875 -1.421875 C 4.546875 -1.128906 4.640625 -0.882812 4.828125 -0.6875 C 5.015625 -0.5 5.269531 -0.375 5.59375 -0.3125 C 5.738281 -0.289062 5.847656 -0.257812 5.921875 -0.21875 C 5.992188 -0.1875 6.03125 -0.140625 6.03125 -0.078125 C 6.03125 -0.0234375 5.992188 0.0078125 5.921875 0.03125 C 5.847656 0.0507812 5.753906 0.0625 5.640625 0.0625 C 5.398438 0.0625 5.203125 0.0546875 5.046875 0.046875 C 4.898438 0.0351562 4.753906 0.0234375 4.609375 0.015625 C 4.472656 0.00390625 4.300781 0 4.09375 0 C 3.875 0 3.679688 0.00390625 3.515625 0.015625 C 3.359375 0.0234375 3.191406 0.0351562 3.015625 0.046875 C 2.847656 0.0546875 2.644531 0.0625 2.40625 0.0625 Z M 2.40625 0.0625 "/></g></g></g><g fill="#000000" fill-opacity="1"><g transform="translate(79.590292, 18.431931)"><g/></g></g><g fill="#000000" fill-opacity="1"><g transform="translate(82.233469, 18.431931)"><g><path d="M 2.703125 0.21875 C 2.328125 0.21875 1.984375 0.160156 1.671875 0.046875 C 1.359375 -0.0664062 1.078125 -0.222656 0.828125 -0.421875 C 0.796875 -0.453125 0.765625 -0.488281 0.734375 -0.53125 C 0.703125 -0.582031 0.675781 -0.632812 0.65625 -0.6875 C 0.613281 -0.863281 0.585938 -1.09375 0.578125 -1.375 C 0.566406 -1.65625 0.550781 -1.890625 0.53125 -2.078125 C 0.53125 -2.140625 0.554688 -2.1875 0.609375 -2.21875 C 0.660156 -2.25 0.722656 -2.265625 0.796875 -2.265625 C 0.835938 -2.265625 0.878906 -2.25 0.921875 -2.21875 C 0.960938 -2.195312 0.988281 -2.160156 1 -2.109375 C 1.175781 -1.429688 1.4375 -0.945312 1.78125 -0.65625 C 2.132812 -0.363281 2.5 -0.21875 2.875 -0.21875 C 3.1875 -0.21875 3.460938 -0.285156 3.703125 -0.421875 C 3.941406 -0.554688 4.128906 -0.742188 4.265625 -0.984375 C 4.398438 -1.222656 4.46875 -1.507812 4.46875 -1.84375 C 4.46875 -2.195312 4.40625 -2.484375 4.28125 -2.703125 C 4.164062 -2.929688 4 -3.128906 3.78125 -3.296875 C 3.5625 -3.472656 3.289062 -3.65625 2.96875 -3.84375 C 2.625 -4.0625 2.285156 -4.28125 1.953125 -4.5 C 1.617188 -4.726562 1.34375 -4.988281 1.125 -5.28125 C 0.90625 -5.582031 0.796875 -5.945312 0.796875 -6.375 C 0.796875 -6.820312 0.894531 -7.222656 1.09375 -7.578125 C 1.300781 -7.941406 1.609375 -8.234375 2.015625 -8.453125 C 2.421875 -8.671875 2.9375 -8.78125 3.5625 -8.78125 C 3.875 -8.78125 4.144531 -8.742188 4.375 -8.671875 C 4.613281 -8.609375 4.800781 -8.546875 4.9375 -8.484375 C 5.007812 -8.460938 5.066406 -8.421875 5.109375 -8.359375 C 5.160156 -8.296875 5.195312 -8.226562 5.21875 -8.15625 C 5.269531 -7.96875 5.328125 -7.753906 5.390625 -7.515625 C 5.453125 -7.285156 5.484375 -7.0625 5.484375 -6.84375 C 5.484375 -6.75 5.414062 -6.703125 5.28125 -6.703125 C 5.207031 -6.703125 5.128906 -6.71875 5.046875 -6.75 C 4.972656 -6.789062 4.929688 -6.835938 4.921875 -6.890625 C 4.734375 -7.359375 4.515625 -7.710938 4.265625 -7.953125 C 4.023438 -8.203125 3.710938 -8.328125 3.328125 -8.328125 C 3.066406 -8.328125 2.820312 -8.273438 2.59375 -8.171875 C 2.363281 -8.078125 2.175781 -7.921875 2.03125 -7.703125 C 1.882812 -7.484375 1.8125 -7.191406 1.8125 -6.828125 C 1.8125 -6.554688 1.894531 -6.3125 2.0625 -6.09375 C 2.238281 -5.882812 2.46875 -5.679688 2.75 -5.484375 C 3.03125 -5.285156 3.332031 -5.085938 3.65625 -4.890625 C 3.96875 -4.703125 4.269531 -4.5 4.5625 -4.28125 C 4.863281 -4.0625 5.109375 -3.800781 5.296875 -3.5 C 5.484375 -3.195312 5.578125 -2.820312 5.578125 -2.375 C 5.578125 -1.851562 5.457031 -1.394531 5.21875 -1 C 4.976562 -0.613281 4.640625 -0.3125 4.203125 -0.09375 C 3.773438 0.113281 3.273438 0.21875 2.703125 0.21875 Z M 2.703125 0.21875 "/></g></g></g><g fill="#000000" fill-opacity="1"><g transform="translate(88.378853, 18.431931)"><g><path d="M 0.359375 0.0625 C 0.242188 0.0625 0.148438 0.046875 0.078125 0.015625 C 0.00390625 -0.015625 -0.03125 -0.0546875 -0.03125 -0.109375 C -0.03125 -0.171875 0.00390625 -0.222656 0.078125 -0.265625 C 0.160156 -0.316406 0.269531 -0.363281 0.40625 -0.40625 C 0.632812 -0.476562 0.84375 -0.582031 1.03125 -0.71875 C 1.226562 -0.863281 1.398438 -1.097656 1.546875 -1.421875 C 1.796875 -1.992188 2.019531 -2.523438 2.21875 -3.015625 C 2.425781 -3.503906 2.625 -3.988281 2.8125 -4.46875 C 3 -4.945312 3.191406 -5.441406 3.390625 -5.953125 C 3.585938 -6.472656 3.796875 -7.035156 4.015625 -7.640625 C 4.054688 -7.765625 4.09375 -7.890625 4.125 -8.015625 C 4.164062 -8.140625 4.191406 -8.269531 4.203125 -8.40625 C 4.285156 -8.4375 4.363281 -8.460938 4.4375 -8.484375 C 4.519531 -8.515625 4.597656 -8.554688 4.671875 -8.609375 C 4.753906 -8.660156 4.8125 -8.738281 4.84375 -8.84375 C 4.875 -8.945312 4.90625 -9.019531 4.9375 -9.0625 C 4.9375 -9.0625 4.941406 -9.0625 4.953125 -9.0625 C 4.972656 -9.0625 4.988281 -9.054688 5 -9.046875 C 5.007812 -9.003906 5.019531 -8.957031 5.03125 -8.90625 C 5.050781 -8.851562 5.070312 -8.800781 5.09375 -8.75 C 5.300781 -8.082031 5.519531 -7.398438 5.75 -6.703125 C 5.976562 -6.003906 6.195312 -5.332031 6.40625 -4.6875 C 6.625 -4.039062 6.820312 -3.457031 7 -2.9375 C 7.1875 -2.425781 7.332031 -2.007812 7.4375 -1.6875 C 7.5625 -1.332031 7.691406 -1.066406 7.828125 -0.890625 C 7.972656 -0.722656 8.125 -0.601562 8.28125 -0.53125 C 8.4375 -0.457031 8.601562 -0.40625 8.78125 -0.375 C 8.925781 -0.34375 9.035156 -0.296875 9.109375 -0.234375 C 9.179688 -0.179688 9.21875 -0.125 9.21875 -0.0625 C 9.21875 -0.0078125 9.179688 0.0195312 9.109375 0.03125 C 9.035156 0.0507812 8.941406 0.0625 8.828125 0.0625 C 8.703125 0.0625 8.535156 0.0546875 8.328125 0.046875 C 8.117188 0.0351562 7.894531 0.0195312 7.65625 0 C 7.414062 -0.0078125 7.195312 -0.015625 7 -0.015625 C 6.820312 -0.015625 6.644531 -0.015625 6.46875 -0.015625 C 6.300781 -0.015625 6.140625 -0.0078125 5.984375 0 C 5.835938 0 5.710938 0 5.609375 0 C 5.492188 0 5.398438 -0.0078125 5.328125 -0.03125 C 5.253906 -0.0625 5.21875 -0.101562 5.21875 -0.15625 C 5.21875 -0.21875 5.257812 -0.269531 5.34375 -0.3125 C 5.4375 -0.363281 5.539062 -0.394531 5.65625 -0.40625 C 5.945312 -0.445312 6.15625 -0.519531 6.28125 -0.625 C 6.40625 -0.738281 6.46875 -0.863281 6.46875 -1 C 6.46875 -1.132812 6.4375 -1.328125 6.375 -1.578125 C 6.320312 -1.828125 6.253906 -2.09375 6.171875 -2.375 C 6.085938 -2.664062 6.015625 -2.921875 5.953125 -3.140625 C 5.929688 -3.210938 5.894531 -3.253906 5.84375 -3.265625 C 5.800781 -3.285156 5.71875 -3.296875 5.59375 -3.296875 L 3.09375 -3.296875 C 3.0625 -3.296875 3.023438 -3.28125 2.984375 -3.25 C 2.941406 -3.21875 2.90625 -3.148438 2.875 -3.046875 C 2.84375 -2.960938 2.796875 -2.828125 2.734375 -2.640625 C 2.671875 -2.453125 2.609375 -2.25 2.546875 -2.03125 C 2.484375 -1.820312 2.429688 -1.632812 2.390625 -1.46875 C 2.347656 -1.300781 2.328125 -1.195312 2.328125 -1.15625 C 2.328125 -0.957031 2.398438 -0.789062 2.546875 -0.65625 C 2.703125 -0.53125 2.882812 -0.441406 3.09375 -0.390625 C 3.382812 -0.316406 3.53125 -0.226562 3.53125 -0.125 C 3.53125 -0.0703125 3.492188 -0.0351562 3.421875 -0.015625 C 3.347656 0.00390625 3.253906 0.015625 3.140625 0.015625 C 3.023438 0.015625 2.859375 0.0078125 2.640625 0 C 2.421875 -0.0078125 2.1875 -0.015625 1.9375 -0.015625 C 1.644531 -0.015625 1.363281 -0.00390625 1.09375 0.015625 C 0.820312 0.046875 0.578125 0.0625 0.359375 0.0625 Z M 3.453125 -3.734375 L 5.5 -3.734375 C 5.625 -3.734375 5.6875 -3.753906 5.6875 -3.796875 C 5.6875 -3.804688 5.679688 -3.820312 5.671875 -3.84375 C 5.671875 -3.875 5.664062 -3.898438 5.65625 -3.921875 L 4.625 -7.15625 C 4.570312 -7.3125 4.53125 -7.390625 4.5 -7.390625 C 4.488281 -7.390625 4.457031 -7.316406 4.40625 -7.171875 L 3.203125 -3.921875 C 3.179688 -3.867188 3.171875 -3.832031 3.171875 -3.8125 C 3.171875 -3.769531 3.191406 -3.742188 3.234375 -3.734375 C 3.285156 -3.734375 3.359375 -3.734375 3.453125 -3.734375 Z M 3.453125 -3.734375 "/></g></g></g><g fill="#000000" fill-opacity="1"><g transform="translate(97.524244, 18.431931)"><g><path d="M 4.90625 0.09375 C 4.8125 0.09375 4.613281 0.0820312 4.3125 0.0625 C 4.007812 0.0507812 3.660156 0.0351562 3.265625 0.015625 C 2.878906 0.00390625 2.507812 0 2.15625 0 C 1.976562 0 1.828125 0.00390625 1.703125 0.015625 C 1.585938 0.0234375 1.460938 0.0351562 1.328125 0.046875 C 1.191406 0.0546875 1.003906 0.0625 0.765625 0.0625 C 0.648438 0.0625 0.554688 0.046875 0.484375 0.015625 C 0.421875 -0.00390625 0.390625 -0.046875 0.390625 -0.109375 C 0.390625 -0.179688 0.421875 -0.226562 0.484375 -0.25 C 0.554688 -0.269531 0.664062 -0.289062 0.8125 -0.3125 C 1.15625 -0.375 1.390625 -0.472656 1.515625 -0.609375 C 1.640625 -0.753906 1.703125 -0.988281 1.703125 -1.3125 L 1.703125 -7.25 C 1.703125 -7.570312 1.640625 -7.796875 1.515625 -7.921875 C 1.390625 -8.054688 1.15625 -8.15625 0.8125 -8.21875 C 0.664062 -8.25 0.554688 -8.28125 0.484375 -8.3125 C 0.421875 -8.34375 0.390625 -8.390625 0.390625 -8.453125 C 0.390625 -8.515625 0.421875 -8.554688 0.484375 -8.578125 C 0.554688 -8.609375 0.648438 -8.625 0.765625 -8.625 C 0.992188 -8.625 1.175781 -8.625 1.3125 -8.625 C 1.445312 -8.625 1.582031 -8.617188 1.71875 -8.609375 C 1.851562 -8.609375 2.023438 -8.609375 2.234375 -8.609375 C 2.378906 -8.609375 2.554688 -8.609375 2.765625 -8.609375 C 2.984375 -8.617188 3.207031 -8.632812 3.4375 -8.65625 C 3.675781 -8.675781 3.890625 -8.691406 4.078125 -8.703125 C 4.265625 -8.710938 4.40625 -8.71875 4.5 -8.71875 C 5.394531 -8.71875 6.160156 -8.609375 6.796875 -8.390625 C 7.429688 -8.171875 7.945312 -7.867188 8.34375 -7.484375 C 8.738281 -7.097656 9.03125 -6.648438 9.21875 -6.140625 C 9.40625 -5.640625 9.5 -5.097656 9.5 -4.515625 C 9.5 -3.878906 9.378906 -3.285156 9.140625 -2.734375 C 8.910156 -2.179688 8.582031 -1.691406 8.15625 -1.265625 C 7.726562 -0.835938 7.238281 -0.503906 6.6875 -0.265625 C 6.132812 -0.0234375 5.539062 0.09375 4.90625 0.09375 Z M 4.75 -0.375 C 5.4375 -0.375 6.039062 -0.539062 6.5625 -0.875 C 7.09375 -1.207031 7.503906 -1.664062 7.796875 -2.25 C 8.097656 -2.84375 8.25 -3.523438 8.25 -4.296875 C 8.25 -4.929688 8.140625 -5.492188 7.921875 -5.984375 C 7.710938 -6.484375 7.429688 -6.90625 7.078125 -7.25 C 6.734375 -7.59375 6.335938 -7.851562 5.890625 -8.03125 C 5.453125 -8.207031 5.007812 -8.296875 4.5625 -8.296875 C 4.175781 -8.296875 3.847656 -8.285156 3.578125 -8.265625 C 3.316406 -8.242188 3.113281 -8.175781 2.96875 -8.0625 C 2.832031 -7.945312 2.765625 -7.757812 2.765625 -7.5 L 2.765625 -1.59375 C 2.765625 -1.25 2.859375 -0.988281 3.046875 -0.8125 C 3.242188 -0.632812 3.492188 -0.515625 3.796875 -0.453125 C 4.097656 -0.398438 4.414062 -0.375 4.75 -0.375 Z M 4.75 -0.375 "/></g></g></g><g fill="#000000" fill-opacity="1"><g transform="translate(107.489011, 18.431931)"><g><path d="M 0.875 0.0625 C 0.757812 0.0625 0.664062 0.0507812 0.59375 0.03125 C 0.519531 0.0078125 0.484375 -0.0234375 0.484375 -0.078125 C 0.484375 -0.179688 0.628906 -0.257812 0.921875 -0.3125 C 1.253906 -0.375 1.5 -0.472656 1.65625 -0.609375 C 1.820312 -0.753906 1.90625 -0.988281 1.90625 -1.3125 L 1.90625 -7.25 C 1.90625 -7.570312 1.835938 -7.796875 1.703125 -7.921875 C 1.578125 -8.054688 1.347656 -8.15625 1.015625 -8.21875 C 0.867188 -8.25 0.757812 -8.285156 0.6875 -8.328125 C 0.613281 -8.367188 0.578125 -8.421875 0.578125 -8.484375 C 0.578125 -8.535156 0.613281 -8.570312 0.6875 -8.59375 C 0.757812 -8.613281 0.851562 -8.625 0.96875 -8.625 C 1.300781 -8.625 1.582031 -8.617188 1.8125 -8.609375 C 2.050781 -8.609375 2.28125 -8.601562 2.5 -8.59375 C 2.726562 -8.59375 2.992188 -8.59375 3.296875 -8.59375 C 3.585938 -8.59375 3.894531 -8.59375 4.21875 -8.59375 C 4.539062 -8.601562 4.835938 -8.609375 5.109375 -8.609375 C 5.410156 -8.617188 5.664062 -8.625 5.875 -8.625 C 6.082031 -8.625 6.203125 -8.625 6.234375 -8.625 C 6.285156 -8.625 6.335938 -8.613281 6.390625 -8.59375 C 6.441406 -8.582031 6.472656 -8.554688 6.484375 -8.515625 C 6.523438 -8.265625 6.566406 -8.019531 6.609375 -7.78125 C 6.648438 -7.539062 6.671875 -7.332031 6.671875 -7.15625 C 6.671875 -7.070312 6.648438 -7.015625 6.609375 -6.984375 C 6.578125 -6.960938 6.535156 -6.953125 6.484375 -6.953125 C 6.441406 -6.953125 6.410156 -6.960938 6.390625 -6.984375 C 6.378906 -7.003906 6.363281 -7.035156 6.34375 -7.078125 C 6.300781 -7.234375 6.253906 -7.378906 6.203125 -7.515625 C 6.160156 -7.648438 6.109375 -7.75 6.046875 -7.8125 C 5.929688 -7.957031 5.796875 -8.050781 5.640625 -8.09375 C 5.492188 -8.144531 5.335938 -8.171875 5.171875 -8.171875 L 3.4375 -8.171875 C 3.363281 -8.171875 3.265625 -8.128906 3.140625 -8.046875 C 3.023438 -7.972656 2.96875 -7.875 2.96875 -7.75 L 2.96875 -4.9375 C 2.96875 -4.863281 2.988281 -4.796875 3.03125 -4.734375 C 3.082031 -4.679688 3.140625 -4.65625 3.203125 -4.65625 L 4.5 -4.65625 C 4.757812 -4.65625 4.9375 -4.703125 5.03125 -4.796875 C 5.132812 -4.890625 5.21875 -5.054688 5.28125 -5.296875 C 5.332031 -5.492188 5.410156 -5.59375 5.515625 -5.59375 C 5.546875 -5.59375 5.582031 -5.570312 5.625 -5.53125 C 5.664062 -5.5 5.6875 -5.445312 5.6875 -5.375 C 5.6875 -5.34375 5.679688 -5.265625 5.671875 -5.140625 C 5.671875 -5.015625 5.664062 -4.882812 5.65625 -4.75 C 5.644531 -4.625 5.640625 -4.523438 5.640625 -4.453125 C 5.640625 -4.367188 5.640625 -4.253906 5.640625 -4.109375 C 5.648438 -3.960938 5.65625 -3.820312 5.65625 -3.6875 C 5.664062 -3.550781 5.671875 -3.46875 5.671875 -3.4375 C 5.671875 -3.375 5.660156 -3.320312 5.640625 -3.28125 C 5.628906 -3.238281 5.597656 -3.21875 5.546875 -3.21875 C 5.421875 -3.21875 5.320312 -3.359375 5.25 -3.640625 C 5.195312 -3.835938 5.125 -3.984375 5.03125 -4.078125 C 4.945312 -4.179688 4.816406 -4.234375 4.640625 -4.234375 L 3.40625 -4.234375 C 3.257812 -4.234375 3.148438 -4.210938 3.078125 -4.171875 C 3.003906 -4.128906 2.96875 -4.035156 2.96875 -3.890625 L 2.96875 -1.34375 C 2.96875 -1.007812 3.035156 -0.78125 3.171875 -0.65625 C 3.316406 -0.53125 3.535156 -0.46875 3.828125 -0.46875 L 4.8125 -0.46875 C 5.09375 -0.46875 5.328125 -0.484375 5.515625 -0.515625 C 5.703125 -0.546875 5.867188 -0.601562 6.015625 -0.6875 C 6.148438 -0.78125 6.273438 -0.90625 6.390625 -1.0625 C 6.503906 -1.226562 6.628906 -1.441406 6.765625 -1.703125 C 6.796875 -1.753906 6.828125 -1.796875 6.859375 -1.828125 C 6.890625 -1.867188 6.929688 -1.882812 6.984375 -1.875 C 7.023438 -1.863281 7.054688 -1.84375 7.078125 -1.8125 C 7.109375 -1.78125 7.125 -1.738281 7.125 -1.6875 C 7.125 -1.613281 7.101562 -1.476562 7.0625 -1.28125 C 7.019531 -1.082031 6.960938 -0.875 6.890625 -0.65625 C 6.828125 -0.445312 6.769531 -0.28125 6.71875 -0.15625 C 6.6875 -0.09375 6.660156 -0.0390625 6.640625 0 C 6.617188 0.0390625 6.582031 0.0625 6.53125 0.0625 C 6.101562 0.0625 5.707031 0.0546875 5.34375 0.046875 C 4.988281 0.046875 4.644531 0.0390625 4.3125 0.03125 C 3.988281 0.0195312 3.671875 0.0078125 3.359375 0 C 3.046875 -0.0078125 2.722656 -0.015625 2.390625 -0.015625 C 2.203125 -0.015625 2.035156 -0.0078125 1.890625 0 C 1.742188 0.0195312 1.597656 0.0351562 1.453125 0.046875 C 1.304688 0.0546875 1.113281 0.0625 0.875 0.0625 Z M 0.875 0.0625 "/></g></g></g></svg>