<svg xmlns="http://www.w3.org/2000/svg" xmlns:xlink="http://www.w3.org/1999/xlink" width="40" zoomAndPan="magnify" viewBox="0 0 30 30.000001" height="40" preserveAspectRatio="xMidYMid meet" version="1.0"><defs><clipPath id="4af3c4462e"><path d="M 8.976562 8.492188 L 21.316406 8.492188 L 21.316406 20.832031 L 8.976562 20.832031 Z M 8.976562 8.492188 " clip-rule="nonzero"/></clipPath></defs><g clip-path="url(#4af3c4462e)"><path fill="#000000" d="M 13.246094 16.535156 C 15.332031 16.535156 17.019531 14.847656 17.019531 12.761719 C 17.019531 10.675781 15.332031 8.988281 13.246094 8.988281 C 11.160156 8.988281 9.472656 10.675781 9.472656 12.761719 C 9.472656 14.847656 11.160156 16.535156 13.246094 16.535156 Z M 16.433594 15.601562 L 21.21875 20.382812 C 21.3125 20.480469 21.3125 20.636719 21.21875 20.734375 C 21.121094 20.828125 20.964844 20.828125 20.867188 20.734375 L 16.085938 15.949219 C 15.328125 16.621094 14.335938 17.03125 13.246094 17.03125 C 10.886719 17.03125 8.976562 15.121094 8.976562 12.761719 C 8.976562 10.402344 10.886719 8.492188 13.246094 8.492188 C 15.605469 8.492188 17.515625 10.402344 17.515625 12.761719 C 17.515625 13.851562 17.105469 14.847656 16.433594 15.601562 Z M 16.433594 15.601562 " fill-opacity="1" fill-rule="nonzero"/></g></svg>