<svg xmlns="http://www.w3.org/2000/svg" xmlns:xlink="http://www.w3.org/1999/xlink" width="500" zoomAndPan="magnify" viewBox="0 0 375 374.999991" height="500" preserveAspectRatio="xMidYMid meet" version="1.0"><defs><g/><clipPath id="fafd2e1cac"><path d="M 158.914062 144.835938 L 262.414062 144.835938 L 262.414062 217.585938 L 158.914062 217.585938 Z M 158.914062 144.835938 " clip-rule="nonzero"/></clipPath></defs><g clip-path="url(#fafd2e1cac)"><path fill="#000000" d="M 262.410156 144.871094 L 262.410156 217.542969 L 158.914062 217.542969 L 158.914062 144.871094 Z M 262.199219 217.332031 L 262.199219 145.082031 L 159.125 145.082031 L 159.125 217.332031 Z M 262.199219 217.332031 " fill-opacity="1" fill-rule="nonzero"/></g><g fill="#000000" fill-opacity="1"><g transform="translate(164.430423, 184.200908)"><g><path d="M 0.550781 0 L 2.351562 0 L 2.351562 -0.152344 L 2.210938 -0.152344 C 2.011719 -0.164062 1.648438 -0.21875 1.648438 -0.417969 L 1.648438 -4.234375 L 5.542969 -4.234375 L 5.542969 -0.417969 C 5.542969 -0.21875 5.179688 -0.164062 4.980469 -0.152344 L 4.839844 -0.152344 L 4.839844 0 L 6.640625 0 L 6.640625 -0.152344 L 6.511719 -0.152344 C 6.300781 -0.164062 5.9375 -0.21875 5.9375 -0.417969 L 5.9375 -7.347656 C 5.9375 -7.53125 6.300781 -7.589844 6.511719 -7.609375 L 6.640625 -7.609375 L 6.640625 -7.765625 L 4.839844 -7.765625 L 4.839844 -7.609375 L 4.980469 -7.609375 C 5.179688 -7.589844 5.542969 -7.53125 5.542969 -7.347656 L 5.542969 -4.386719 L 1.648438 -4.386719 L 1.648438 -7.347656 C 1.648438 -7.53125 2.011719 -7.589844 2.210938 -7.609375 L 2.351562 -7.609375 L 2.351562 -7.765625 L 0.550781 -7.765625 L 0.550781 -7.609375 L 0.683594 -7.609375 C 0.890625 -7.589844 1.242188 -7.53125 1.253906 -7.347656 L 1.253906 -0.417969 C 1.253906 -0.21875 0.890625 -0.164062 0.683594 -0.152344 L 0.550781 -0.152344 Z M 0.550781 0 "/></g></g></g><g fill="#000000" fill-opacity="1"><g transform="translate(171.622418, 184.200908)"><g><path d="M 3.828125 0.164062 L 3.925781 0.164062 C 5.761719 0.164062 7.203125 -1.738281 7.203125 -3.828125 C 7.203125 -5.90625 5.742188 -7.820312 3.925781 -7.820312 L 3.828125 -7.820312 C 2.023438 -7.820312 0.550781 -5.9375 0.550781 -3.828125 C 0.550781 -1.75 2.023438 0.164062 3.828125 0.164062 Z M 2.890625 -0.21875 C 1.757812 -0.769531 0.945312 -2.253906 0.945312 -3.828125 C 0.945312 -5.554688 1.933594 -7.160156 3.234375 -7.566406 C 3.441406 -7.632812 3.660156 -7.652344 3.871094 -7.652344 C 4.089844 -7.652344 4.300781 -7.621094 4.519531 -7.566406 C 5.816406 -7.179688 6.796875 -5.554688 6.796875 -3.828125 C 6.796875 -2.253906 5.992188 -0.769531 4.859375 -0.21875 C 4.191406 0.0664062 3.5625 0.0664062 2.890625 -0.21875 Z M 2.890625 -0.21875 "/></g></g></g><g fill="#000000" fill-opacity="1"><g transform="translate(179.375258, 184.200908)"><g><path d="M 0.550781 -0.152344 L 0.550781 0 L 2.113281 0 L 2.113281 -0.152344 C 1.726562 -0.152344 1.40625 -0.21875 1.40625 -0.417969 L 1.40625 -7.390625 L 4.375 -0.0546875 L 4.410156 -0.0546875 L 7.347656 -7.445312 L 7.347656 -0.417969 C 7.347656 -0.21875 7.027344 -0.152344 6.640625 -0.152344 L 6.640625 0 L 8.445312 0 L 8.445312 -0.152344 C 8.0625 -0.152344 7.742188 -0.21875 7.742188 -0.417969 L 7.742188 -7.355469 C 7.742188 -7.542969 8.0625 -7.621094 8.445312 -7.621094 L 8.445312 -7.773438 L 7.300781 -7.773438 L 4.519531 -0.746094 L 1.683594 -7.773438 L 0.550781 -7.773438 L 0.550781 -7.621094 C 0.933594 -7.621094 1.242188 -7.542969 1.253906 -7.355469 L 1.253906 -0.417969 C 1.253906 -0.21875 0.933594 -0.152344 0.550781 -0.152344 Z M 0.550781 -0.152344 "/></g></g></g><g fill="#000000" fill-opacity="1"><g transform="translate(188.37075, 184.200908)"><g><path d="M 5.113281 -0.691406 C 5.082031 -0.625 4.773438 -0.152344 4.453125 -0.152344 L 1.636719 -0.152344 L 1.636719 -4.234375 L 4.234375 -4.234375 C 4.34375 -4.234375 4.464844 -3.96875 4.464844 -3.96875 L 4.542969 -3.96875 L 4.542969 -4.664062 L 4.464844 -4.664062 C 4.464844 -4.664062 4.34375 -4.398438 4.234375 -4.398438 L 1.636719 -4.398438 L 1.636719 -7.609375 L 4.210938 -7.609375 C 4.441406 -7.609375 4.695312 -7.148438 4.71875 -7.105469 L 4.792969 -7.105469 L 4.792969 -7.773438 L 0.550781 -7.773438 L 0.550781 -7.609375 C 0.550781 -7.609375 1.242188 -7.609375 1.242188 -7.347656 L 1.242188 -0.417969 C 1.242188 -0.21875 0.878906 -0.164062 0.683594 -0.152344 L 0.550781 -0.152344 L 0.550781 0 L 4.871094 0 L 5.300781 -0.691406 Z M 5.113281 -0.691406 "/></g></g></g><g fill="#000000" fill-opacity="1"><g transform="translate(194.221116, 184.200908)"><g><path d="M 0.550781 -0.164062 L 0.550781 0 L 4.90625 0 L 5.332031 -0.703125 L 5.148438 -0.703125 L 5.148438 -0.691406 C 5.113281 -0.636719 4.804688 -0.164062 4.488281 -0.164062 L 1.636719 -0.164062 L 1.636719 -7.347656 C 1.636719 -7.621094 2.34375 -7.621094 2.34375 -7.621094 L 2.34375 -7.773438 L 0.550781 -7.773438 L 0.550781 -7.621094 C 0.550781 -7.621094 1.242188 -7.621094 1.242188 -7.347656 L 1.242188 -0.429688 C 1.242188 -0.230469 0.878906 -0.175781 0.683594 -0.164062 Z M 0.550781 -0.164062 "/></g></g></g><g fill="#000000" fill-opacity="1"><g transform="translate(200.10448, 184.200908)"><g><path d="M 2.835938 -0.164062 L 2.835938 0 L 4.640625 0 L 4.640625 -0.164062 C 4.253906 -0.164062 3.9375 -0.230469 3.9375 -0.429688 L 3.9375 -3.484375 L 6.160156 -7.355469 C 6.269531 -7.578125 6.554688 -7.621094 6.9375 -7.621094 L 6.9375 -7.773438 L 5.355469 -7.773438 L 5.355469 -7.621094 C 5.742188 -7.621094 6.09375 -7.578125 5.980469 -7.355469 L 3.847656 -3.671875 L 1.726562 -7.355469 C 1.636719 -7.554688 1.96875 -7.609375 2.351562 -7.609375 L 2.351562 -7.773438 L 0.550781 -7.773438 L 0.550781 -7.609375 C 0.933594 -7.609375 1.15625 -7.566406 1.277344 -7.355469 L 3.542969 -3.421875 L 3.542969 -0.429688 C 3.542969 -0.230469 3.222656 -0.164062 2.835938 -0.164062 Z M 2.835938 -0.164062 "/></g></g></g><g fill="#000000" fill-opacity="1"><g transform="translate(207.593388, 184.200908)"><g/></g><g transform="translate(211.992165, 184.200908)"><g><path d="M 0.550781 -0.164062 L 0.550781 0 L 3.234375 0 C 3.816406 0 4.355469 -0.207031 4.75 -0.582031 C 5.15625 -0.96875 5.386719 -1.472656 5.386719 -2.046875 C 5.386719 -2.617188 5.15625 -3.132812 4.75 -3.519531 C 4.453125 -3.792969 4.078125 -3.980469 3.671875 -4.058594 C 3.9375 -4.144531 4.167969 -4.289062 4.375 -4.476562 C 4.761719 -4.816406 4.96875 -5.324219 4.96875 -5.851562 C 4.96875 -6.378906 4.75 -6.875 4.375 -7.226562 C 4.003906 -7.578125 3.484375 -7.773438 2.945312 -7.773438 L 0.550781 -7.773438 L 0.550781 -7.609375 L 0.691406 -7.609375 C 0.890625 -7.597656 1.253906 -7.542969 1.253906 -7.347656 L 1.253906 -0.429688 C 1.253906 -0.230469 0.890625 -0.175781 0.683594 -0.164062 Z M 3.035156 -4.089844 L 1.648438 -4.089844 L 1.648438 -7.347656 C 1.648438 -7.542969 2.011719 -7.597656 2.210938 -7.609375 L 2.945312 -7.609375 C 3.828125 -7.609375 4.609375 -6.785156 4.609375 -5.851562 C 4.609375 -4.949219 3.882812 -4.144531 3.035156 -4.089844 Z M 3.234375 -0.164062 L 2.210938 -0.164062 C 2.011719 -0.175781 1.648438 -0.230469 1.648438 -0.429688 L 1.648438 -3.9375 L 2.9375 -3.9375 L 2.9375 -3.925781 L 2.945312 -3.925781 C 2.980469 -3.925781 3.011719 -3.9375 3.035156 -3.9375 L 3.222656 -3.9375 L 3.222656 -3.925781 L 3.234375 -3.925781 C 3.695312 -3.925781 4.144531 -3.726562 4.488281 -3.355469 C 4.816406 -3.003906 5.015625 -2.519531 5.015625 -2.046875 C 5.015625 -1.574219 4.816406 -1.101562 4.488281 -0.738281 C 4.144531 -0.363281 3.695312 -0.164062 3.234375 -0.164062 Z M 3.234375 -0.164062 "/></g></g></g><g fill="#000000" fill-opacity="1"><g transform="translate(217.930509, 184.200908)"><g><path d="M 2.835938 -0.164062 L 2.835938 0 L 4.640625 0 L 4.640625 -0.164062 C 4.253906 -0.164062 3.9375 -0.230469 3.9375 -0.429688 L 3.9375 -3.484375 L 6.160156 -7.355469 C 6.269531 -7.578125 6.554688 -7.621094 6.9375 -7.621094 L 6.9375 -7.773438 L 5.355469 -7.773438 L 5.355469 -7.621094 C 5.742188 -7.621094 6.09375 -7.578125 5.980469 -7.355469 L 3.847656 -3.671875 L 1.726562 -7.355469 C 1.636719 -7.554688 1.96875 -7.609375 2.351562 -7.609375 L 2.351562 -7.773438 L 0.550781 -7.773438 L 0.550781 -7.609375 C 0.933594 -7.609375 1.15625 -7.566406 1.277344 -7.355469 L 3.542969 -3.421875 L 3.542969 -0.429688 C 3.542969 -0.230469 3.222656 -0.164062 2.835938 -0.164062 Z M 2.835938 -0.164062 "/></g></g></g><g fill="#000000" fill-opacity="1"><g transform="translate(225.419416, 184.200908)"><g/></g><g transform="translate(229.818194, 184.200908)"><g><path d="M 1.636719 -0.265625 C 2.410156 0.199219 3.363281 0.308594 4.210938 -0.109375 C 4.90625 -0.460938 5.367188 -1.101562 5.367188 -1.835938 C 5.367188 -2.574219 4.914062 -3.242188 4.144531 -3.605469 L 2.242188 -4.488281 C 1.703125 -4.761719 1.253906 -5.289062 1.253906 -5.863281 L 1.253906 -5.9375 C 1.285156 -6.839844 2.277344 -7.597656 3.101562 -7.597656 C 3.882812 -7.566406 4.609375 -7.09375 5.082031 -6.3125 L 5.210938 -6.390625 L 5.082031 -6.949219 C 5.070312 -6.960938 4.71875 -7.191406 4.289062 -7.390625 C 4.234375 -7.410156 4.179688 -7.445312 4.125 -7.476562 C 3.804688 -7.652344 3.453125 -7.785156 3.101562 -7.785156 C 1.925781 -7.785156 1.023438 -7.058594 0.980469 -5.960938 L 0.980469 -5.851562 C 0.980469 -5.136719 1.398438 -4.476562 2.054688 -4.136719 L 3.9375 -3.265625 C 4.5625 -2.96875 5.058594 -2.441406 5.058594 -1.835938 C 5.058594 -1.210938 4.617188 -0.515625 3.957031 -0.199219 C 3.308594 0.0976562 2.496094 0.0234375 1.859375 -0.375 C 1.386719 -0.671875 0.988281 -1.132812 0.691406 -1.695312 C 0.691406 -1.703125 0.683594 -1.703125 0.683594 -1.703125 L 0.550781 -1.628906 L 0.550781 -1.617188 L 0.746094 -0.78125 C 0.757812 -0.769531 1.132812 -0.527344 1.636719 -0.265625 Z M 1.636719 -0.265625 "/></g></g></g><g fill="#000000" fill-opacity="1"><g transform="translate(235.734547, 184.200908)"><g><path d="M 0.550781 -0.152344 L 0.550781 0 L 2.351562 0 L 2.351562 -0.152344 C 2 -0.152344 1.441406 -0.1875 1.539062 -0.417969 L 1.527344 -0.417969 L 2.671875 -3.363281 L 5.664062 -3.363281 L 6.796875 -0.417969 C 6.882812 -0.199219 6.511719 -0.152344 6.160156 -0.152344 L 6.160156 0 L 7.960938 0 L 7.960938 -0.152344 C 7.644531 -0.152344 7.347656 -0.199219 7.234375 -0.386719 L 4.375 -7.765625 L 4.375 -7.773438 L 4.210938 -7.773438 L 1.351562 -0.40625 C 1.242188 -0.175781 0.859375 -0.152344 0.550781 -0.152344 Z M 5.597656 -3.519531 L 2.738281 -3.519531 L 4.167969 -7.214844 Z M 5.597656 -3.519531 "/></g></g></g><g fill="#000000" fill-opacity="1"><g transform="translate(244.246172, 184.200908)"><g><path d="M 2.230469 0 L 2.230469 0.0117188 L 3.179688 0.0117188 C 4.914062 0.0117188 6.335938 -1.75 6.335938 -3.882812 C 6.335938 -6.015625 4.914062 -7.765625 3.179688 -7.765625 L 0.550781 -7.765625 L 0.550781 -7.609375 L 0.691406 -7.609375 C 0.890625 -7.589844 1.253906 -7.53125 1.253906 -7.347656 L 1.253906 -0.417969 C 1.253906 -0.21875 0.890625 -0.164062 0.691406 -0.152344 L 0.550781 -0.152344 L 0.550781 0 Z M 3.179688 -0.152344 L 2.210938 -0.152344 C 2.011719 -0.164062 1.648438 -0.21875 1.648438 -0.417969 L 1.648438 -7.347656 C 1.648438 -7.53125 2.011719 -7.589844 2.210938 -7.609375 L 2.230469 -7.609375 L 2.230469 -7.597656 L 3.179688 -7.597656 L 3.179688 -7.609375 C 4.707031 -7.589844 5.949219 -5.796875 5.949219 -3.882812 C 5.949219 -2.046875 4.804688 -0.328125 3.363281 -0.164062 C 3.300781 -0.164062 3.234375 -0.152344 3.179688 -0.152344 Z M 3.179688 -0.152344 "/></g></g></g><g fill="#000000" fill-opacity="1"><g transform="translate(251.130253, 184.200908)"><g><path d="M 5.113281 -0.691406 C 5.082031 -0.625 4.773438 -0.152344 4.453125 -0.152344 L 1.636719 -0.152344 L 1.636719 -4.234375 L 4.234375 -4.234375 C 4.34375 -4.234375 4.464844 -3.96875 4.464844 -3.96875 L 4.542969 -3.96875 L 4.542969 -4.664062 L 4.464844 -4.664062 C 4.464844 -4.664062 4.34375 -4.398438 4.234375 -4.398438 L 1.636719 -4.398438 L 1.636719 -7.609375 L 4.210938 -7.609375 C 4.441406 -7.609375 4.695312 -7.148438 4.71875 -7.105469 L 4.792969 -7.105469 L 4.792969 -7.773438 L 0.550781 -7.773438 L 0.550781 -7.609375 C 0.550781 -7.609375 1.242188 -7.609375 1.242188 -7.347656 L 1.242188 -0.417969 C 1.242188 -0.21875 0.878906 -0.164062 0.683594 -0.152344 L 0.550781 -0.152344 L 0.550781 0 L 4.871094 0 L 5.300781 -0.691406 Z M 5.113281 -0.691406 "/></g></g></g><g fill="#000000" fill-opacity="1"><g transform="translate(192.44662, 197.267698)"><g><path d="M 1.042969 -0.167969 C 1.53125 0.125 2.140625 0.195312 2.679688 -0.0703125 C 3.121094 -0.292969 3.417969 -0.699219 3.417969 -1.167969 C 3.417969 -1.636719 3.128906 -2.066406 2.640625 -2.296875 L 1.429688 -2.855469 C 1.085938 -3.03125 0.796875 -3.367188 0.796875 -3.730469 L 0.796875 -3.78125 C 0.820312 -4.355469 1.449219 -4.835938 1.972656 -4.835938 C 2.472656 -4.816406 2.933594 -4.515625 3.234375 -4.019531 L 3.316406 -4.066406 L 3.234375 -4.425781 C 3.226562 -4.429688 3.003906 -4.578125 2.730469 -4.703125 C 2.695312 -4.71875 2.660156 -4.738281 2.625 -4.761719 C 2.421875 -4.871094 2.199219 -4.957031 1.972656 -4.957031 C 1.226562 -4.957031 0.652344 -4.492188 0.621094 -3.792969 L 0.621094 -3.722656 C 0.621094 -3.269531 0.890625 -2.847656 1.308594 -2.632812 L 2.507812 -2.078125 C 2.90625 -1.890625 3.21875 -1.554688 3.21875 -1.167969 C 3.21875 -0.769531 2.941406 -0.328125 2.519531 -0.125 C 2.105469 0.0625 1.589844 0.015625 1.183594 -0.238281 C 0.882812 -0.425781 0.628906 -0.722656 0.441406 -1.078125 C 0.441406 -1.085938 0.433594 -1.085938 0.433594 -1.085938 L 0.351562 -1.035156 L 0.351562 -1.027344 L 0.476562 -0.496094 C 0.484375 -0.488281 0.722656 -0.335938 1.042969 -0.167969 Z M 1.042969 -0.167969 "/></g></g></g><g fill="#000000" fill-opacity="1"><g transform="translate(196.212725, 197.267698)"><g><path d="M 0.351562 0 L 1.496094 0 L 1.496094 -0.0976562 L 1.40625 -0.0976562 C 1.28125 -0.105469 1.050781 -0.140625 1.050781 -0.265625 L 1.050781 -2.695312 L 3.527344 -2.695312 L 3.527344 -0.265625 C 3.527344 -0.140625 3.296875 -0.105469 3.171875 -0.0976562 L 3.078125 -0.0976562 L 3.078125 0 L 4.226562 0 L 4.226562 -0.0976562 L 4.144531 -0.0976562 C 4.011719 -0.105469 3.78125 -0.140625 3.78125 -0.265625 L 3.78125 -4.675781 C 3.78125 -4.796875 4.011719 -4.832031 4.144531 -4.84375 L 4.226562 -4.84375 L 4.226562 -4.941406 L 3.078125 -4.941406 L 3.078125 -4.84375 L 3.171875 -4.84375 C 3.296875 -4.832031 3.527344 -4.796875 3.527344 -4.675781 L 3.527344 -2.792969 L 1.050781 -2.792969 L 1.050781 -4.675781 C 1.050781 -4.796875 1.28125 -4.832031 1.40625 -4.84375 L 1.496094 -4.84375 L 1.496094 -4.941406 L 0.351562 -4.941406 L 0.351562 -4.84375 L 0.433594 -4.84375 C 0.566406 -4.832031 0.792969 -4.796875 0.796875 -4.675781 L 0.796875 -0.265625 C 0.796875 -0.140625 0.566406 -0.105469 0.433594 -0.0976562 L 0.351562 -0.0976562 Z M 0.351562 0 "/></g></g></g><g fill="#000000" fill-opacity="1"><g transform="translate(200.790855, 197.267698)"><g><path d="M 2.4375 0.105469 L 2.5 0.105469 C 3.667969 0.105469 4.585938 -1.105469 4.585938 -2.4375 C 4.585938 -3.757812 3.652344 -4.976562 2.5 -4.976562 L 2.4375 -4.976562 C 1.289062 -4.976562 0.351562 -3.78125 0.351562 -2.4375 C 0.351562 -1.113281 1.289062 0.105469 2.4375 0.105469 Z M 1.839844 -0.140625 C 1.121094 -0.488281 0.601562 -1.433594 0.601562 -2.4375 C 0.601562 -3.535156 1.230469 -4.558594 2.058594 -4.816406 C 2.191406 -4.859375 2.332031 -4.871094 2.464844 -4.871094 C 2.605469 -4.871094 2.738281 -4.851562 2.878906 -4.816406 C 3.703125 -4.570312 4.324219 -3.535156 4.324219 -2.4375 C 4.324219 -1.433594 3.816406 -0.488281 3.09375 -0.140625 C 2.667969 0.0429688 2.269531 0.0429688 1.839844 -0.140625 Z M 1.839844 -0.140625 "/></g></g></g><g fill="#000000" fill-opacity="1"><g transform="translate(205.725994, 197.267698)"><g><path d="M 0.351562 -0.0976562 L 0.351562 0 L 1.496094 0 L 1.496094 -0.0976562 L 1.40625 -0.0976562 C 1.28125 -0.113281 1.050781 -0.148438 1.050781 -0.265625 L 1.050781 -2.066406 L 2.003906 -2.066406 C 2.835938 -2.066406 3.515625 -2.675781 3.515625 -3.507812 C 3.515625 -4.339844 2.835938 -4.941406 2.003906 -4.941406 L 0.351562 -4.941406 L 0.351562 -4.84375 L 0.441406 -4.84375 C 0.566406 -4.835938 0.796875 -4.800781 0.796875 -4.675781 L 0.796875 -0.265625 C 0.796875 -0.148438 0.566406 -0.113281 0.441406 -0.0976562 Z M 2.003906 -2.171875 L 1.050781 -2.171875 L 1.050781 -4.675781 C 1.050781 -4.800781 1.28125 -4.835938 1.40625 -4.84375 L 2.003906 -4.84375 C 2.695312 -4.84375 3.261719 -4.199219 3.261719 -3.507812 C 3.261719 -2.8125 2.695312 -2.171875 2.003906 -2.171875 Z M 2.003906 -2.171875 "/></g></g></g><g fill="#000000" fill-opacity="1"><g transform="translate(209.590109, 197.267698)"><g/></g></g><g fill="#000000" fill-opacity="1"><g transform="translate(212.39019, 197.267698)"><g><path d="M 0.351562 -0.0976562 L 0.351562 0 L 1.34375 0 L 1.34375 -0.0976562 C 1.097656 -0.0976562 0.894531 -0.140625 0.894531 -0.265625 L 0.894531 -4.71875 L 3.886719 0 L 3.976562 0 L 3.976562 -4.683594 C 3.976562 -4.800781 4.179688 -4.851562 4.425781 -4.851562 L 4.425781 -4.949219 L 3.429688 -4.949219 L 3.429688 -4.851562 C 3.675781 -4.851562 3.878906 -4.800781 3.878906 -4.683594 L 3.878906 -0.496094 L 1.042969 -4.949219 L 0.351562 -4.949219 L 0.351562 -4.851562 C 0.59375 -4.851562 0.792969 -4.800781 0.792969 -4.683594 L 0.792969 -0.265625 C 0.792969 -0.140625 0.59375 -0.0976562 0.351562 -0.0976562 Z M 0.351562 -0.0976562 "/></g></g></g><g fill="#000000" fill-opacity="1"><g transform="translate(217.164324, 197.267698)"><g><path d="M 2.4375 0.105469 L 2.5 0.105469 C 3.667969 0.105469 4.585938 -1.105469 4.585938 -2.4375 C 4.585938 -3.757812 3.652344 -4.976562 2.5 -4.976562 L 2.4375 -4.976562 C 1.289062 -4.976562 0.351562 -3.78125 0.351562 -2.4375 C 0.351562 -1.113281 1.289062 0.105469 2.4375 0.105469 Z M 1.839844 -0.140625 C 1.121094 -0.488281 0.601562 -1.433594 0.601562 -2.4375 C 0.601562 -3.535156 1.230469 -4.558594 2.058594 -4.816406 C 2.191406 -4.859375 2.332031 -4.871094 2.464844 -4.871094 C 2.605469 -4.871094 2.738281 -4.851562 2.878906 -4.816406 C 3.703125 -4.570312 4.324219 -3.535156 4.324219 -2.4375 C 4.324219 -1.433594 3.816406 -0.488281 3.09375 -0.140625 C 2.667969 0.0429688 2.269531 0.0429688 1.839844 -0.140625 Z M 1.839844 -0.140625 "/></g></g></g><g fill="#000000" fill-opacity="1"><g transform="translate(222.099462, 197.267698)"><g><path d="M 2.476562 -0.0703125 L 2.507812 0 L 2.554688 0 L 2.667969 -0.265625 L 3.402344 -2.332031 L 4.214844 -0.0703125 L 4.242188 0 L 4.296875 0 L 4.402344 -0.265625 L 5.984375 -4.691406 C 6.046875 -4.835938 6.398438 -4.851562 6.480469 -4.851562 L 6.503906 -4.851562 L 6.503906 -4.957031 L 5.355469 -4.957031 L 5.355469 -4.851562 L 5.433594 -4.851562 C 5.585938 -4.851562 5.9375 -4.832031 5.875 -4.691406 L 4.355469 -0.398438 L 3.535156 -2.703125 L 4.242188 -4.691406 C 4.3125 -4.835938 4.660156 -4.851562 4.746094 -4.851562 L 4.765625 -4.851562 L 4.765625 -4.957031 L 3.617188 -4.957031 L 3.617188 -4.851562 L 3.6875 -4.851562 C 3.84375 -4.851562 4.191406 -4.832031 4.136719 -4.691406 L 3.480469 -2.847656 L 2.828125 -4.691406 C 2.777344 -4.824219 3.066406 -4.851562 3.183594 -4.851562 L 3.234375 -4.851562 L 3.234375 -4.957031 L 2.085938 -4.957031 L 2.085938 -4.851562 L 2.136719 -4.851562 C 2.238281 -4.851562 2.492188 -4.824219 2.554688 -4.695312 L 3.351562 -2.476562 L 2.609375 -0.398438 L 1.09375 -4.691406 C 1.035156 -4.824219 1.328125 -4.851562 1.449219 -4.851562 L 1.496094 -4.851562 L 1.496094 -4.957031 L 0.351562 -4.957031 L 0.351562 -4.851562 L 0.390625 -4.851562 C 0.496094 -4.851562 0.757812 -4.824219 0.8125 -4.695312 Z M 2.476562 -0.0703125 "/></g></g></g></svg>